<?xml version="1.0" encoding="UTF-8" standalone="no"?>
<svg xmlns="http://www.w3.org/2000/svg" version="1.1"
     width="393.645" height="100"
     viewBox="0 38.5 393.645 100">
  <path d="M 76.274914,136.27004 H 68.936008 V 98.012064 h 7.338906 z m -7.248747,-38.264746 -0.09016,-23.69281 h 7.338907 l -0.03,23.72286 z m -0.09016,38.264746 H 61.596363 V 112.44956 H 14.437504 v 23.82048 H 0 V 74.312484 h 14.437504 v 23.69958 h 40.887226 6.272374 7.339646 v 38.257976 z m 0,-61.957556 h -7.339645 v 23.72286 l 7.429804,-0.03 z"
        style="fill:#ba160c;stroke-width:0.741678"/>
  <path d="m 152.18788,104.86887 c 5.05231,3.1284 7.57921,7.90036 7.57921,14.31661 0,4.65181 -1.48336,8.58196 -4.45156,11.79046 -3.20775,3.5289 -7.53915,5.29335 -12.99345,5.29335 h -21.2335 v -14.43676 h 21.2335 c 2.0856,0 3.1284,-1.5642 3.1284,-4.6926 0,-3.12691 -1.0428,-4.69111 -3.1284,-4.69111 h -21.2335 V 98.132214 h 20.15139 c 2.08486,0 3.12766,-1.5642 3.12766,-4.6926 0,-3.12691 -1.0428,-4.69185 -3.12766,-4.69185 h -20.15139 v -14.43602 h 20.15139 c 5.45356,0 9.78422,1.76445 12.99346,5.29335 2.88661,3.20776 4.33065,7.13865 4.33065,11.78972 0,5.77544 -2.12564,10.266296 -6.3762,13.474056 z m -31.0993,31.40117 H 82.289924 V 98.132954 h 14.4375 3.900486 20.46141 V 112.44956 H 96.727424 v 9.38371 h 24.361896 v 14.43677 z m 0,-47.521536 H 96.726684 l 0.03,9.82704 -14.43751,-0.36063 -0.03,-23.90317 h 38.798656 v 14.43676 z"
        style="fill:#ba160c;stroke-width:0.741678"/>
  <path d="m 166.41623,58.206194 v -6.61576 h 10.77806 v -3.97021 c 0,-1.43292 -0.47764,-2.15012 -1.43366,-2.15012 h -9.34514 v -6.615027 h 9.34514 c 2.39043,0 4.32843,0.863313 5.81624,2.591427 1.48855,1.72811 2.23319,3.78552 2.23319,6.17447 v 19.62702 h -6.61651 v -9.04105 h -10.77732 z m 87.96524,9.0418 h -21.94403 c -2.57288,0 -4.75935,-0.85441 -6.56014,-2.56472 -1.80154,-1.70883 -2.70119,-3.85005 -2.70119,-6.42219 v -10.41984 c 0,-2.57362 0.89965,-4.7141 2.70119,-6.424411 1.80079,-1.708827 3.98726,-2.562498 6.56014,-2.562498 h 21.94403 v 6.615029 h -21.94403 c -1.76371,0 -2.64556,0.79063 -2.64556,2.37114 v 10.41984 c 0,1.58051 0.88185,2.3704 2.64556,2.3704 h 21.94403 z m 69.63096,0 h -6.67214 v -10.91602 h -16.98072 v 10.91602 H 293.7438 V 38.855077 h 6.61577 v 10.861137 h 16.98072 V 38.855077 h 6.67214 z m 69.63244,-21.77789 H 369.9935 v 4.24611 h 22.10719 v 6.61576 H 369.9935 v 4.29951 h 23.59574 v 6.61577 H 363.37699 V 38.854335 h 30.26714 v 6.615769 z M 166.41623,38.855077 v 6.615027 h -9.40003 c -0.91894,0 -1.37804,0.7172 -1.37804,2.15012 v 3.97021 h 4.13486 1.80599 4.83722 v 6.61576 h -4.83722 -1.80599 -4.13486 v 9.04106 h -6.61576 v -19.62703 c 0,-2.38894 0.74464,-4.4471 2.23319,-6.17447 1.48781,-1.728106 3.40875,-2.591419 5.76135,-2.591419 h 9.39929 z M 91.905774,57.985924 v -6.61577 h 9.703376 c 0.95528,0 1.43366,-0.97383 1.43366,-2.92147 0,-1.98473 -0.47838,-2.97784 -1.43366,-2.97784 h -9.703376 v -6.615026 h 9.703376 c 2.46237,0 4.44636,1.010908 5.95419,3.031976 1.39658,1.83788 2.09524,4.02361 2.09524,6.56089 0,2.5358 -0.69866,4.70372 -2.09524,6.50526 -1.50783,2.02107 -3.49182,3.03198 -5.95419,3.03198 z m -57.118108,9.26207 h -6.615768 v -9.04105 H 17.393833 v -6.61577 h 10.778065 v -3.9702 c 0,-1.43293 -0.477641,-2.15013 -1.432922,-2.15013 h -9.345143 v -6.615026 h 9.345143 c 2.389687,0 4.327691,0.863314 5.816239,2.591426 1.488548,1.72811 2.232451,3.78552 2.232451,6.17447 z M 91.905774,38.855077 v 6.615027 h -11.13703 v 5.89931 h 11.13703 v 6.61576 h -11.13703 v 9.26208 H 74.152971 V 38.854335 H 91.905774 Z M 17.394575,58.206194 h -5.63972 -1.004232 -4.134855 v 9.04106 H 0 v -19.62703 c 0,-2.38894 0.744645,-4.4471 2.232451,-6.17447 1.488548,-1.728106 3.409494,-2.591419 5.761355,-2.591419 h 9.400027 v 6.615029 H 7.993806 c -0.918939,0 -1.378038,0.7172 -1.378038,2.15012 v 3.9702 h 4.134855 1.004232 5.63972 z"
        style="fill:#666666;stroke-width:0.741678"/>
  <path d="m 241.47553,136.27004 h -14.43676 v -19.73012 h -23.06174 -0.45836 v -14.43751 h 0.45836 23.06174 v -8.662796 c 0,-3.12691 -1.0428,-4.69037 -3.1284,-4.69037 h -20.3917 v -14.43676 h 20.3917 c 5.21399,0 9.44378,1.8846 12.69308,5.65381 3.2478,3.76995 4.87208,8.26155 4.87208,13.47406 z m -37.95686,-19.73012 h -14.49758 -9.02251 v 19.73012 h -14.4375 V 93.439614 c 0,-5.21251 1.62427,-9.70337 4.87208,-13.47406 3.24781,-3.76995 7.43903,-5.65381 12.57292,-5.65381 h 20.51185 v 14.4375 h -20.51185 c -2.00549,0 -3.0075,1.56346 -3.0075,4.69037 v 8.662796 h 9.02251 14.49758 z"
        style="fill:#ba160c;stroke-width:0.741678"/>
  <path d="m 321.57972,117.14068 c 0,5.21399 -1.5642,9.6648 -4.69259,13.35465 -3.36796,3.84931 -7.61926,5.77471 -12.75168,5.77471 H 250.7198 v -14.43677 h 53.41565 c 2.0055,0 3.00751,-1.5642 3.00751,-4.69259 0,-3.12692 -1.00275,-4.69112 -3.00751,-4.69112 h -38.85947 c -5.13242,0 -9.38371,-1.92539 -12.75167,-5.77544 -3.20924,-3.60827 -4.81349,-8.019766 -4.81349,-13.233766 0,-5.21251 1.64504,-9.70337 4.9329,-13.47406 3.2886,-3.76995 7.49984,-5.65381 12.63226,-5.65381 h 53.41639 v 14.43602 h -53.41639 c -2.00476,0 -3.00751,1.5642 -3.00751,4.69185 0,3.04756 1.00275,4.57171 3.00751,4.57171 h 38.85947 c 5.13242,0 9.38372,1.92539 12.75168,5.775436 3.12839,3.68911 4.69259,8.14066 4.69259,13.35318 z"
        style="fill:#ba160c;stroke-width:0.741678"/>
  <polygon points="572.44,371.672 572.44,288.135 661.494,288.135 661.494,307.599 591.906,307.599 591.906,320.089 656.952,320.089 656.952,339.555 591.906,339.555 591.906,352.207 661.331,352.207 661.331,371.672"
           style="fill:#ba160c"
           transform="matrix(0.74167802,0,0,0.74167802,-96.97069,-139.39091)"/>
</svg>
