<?xml version="1.0" encoding="UTF-8" standalone="no"?>
<!-- Generator: Adobe Illustrator 15.1.0, SVG Export Plug-In . SVG Version: 6.00 Build 0)  -->

<svg
   xmlns:dc="http://purl.org/dc/elements/1.1/"
   xmlns:cc="http://creativecommons.org/ns#"
   xmlns:rdf="http://www.w3.org/1999/02/22-rdf-syntax-ns#"
   xmlns:svg="http://www.w3.org/2000/svg"
   xmlns="http://www.w3.org/2000/svg"
   xmlns:sodipodi="http://sodipodi.sourceforge.net/DTD/sodipodi-0.dtd"
   xmlns:inkscape="http://www.inkscape.org/namespaces/inkscape"
   version="1.1"
   id="Layer_1"
   x="0px"
   y="0px"
   width="792px"
   height="612px"
   viewBox="0 0 792 612"
   enable-background="new 0 0 792 612"
   xml:space="preserve"
   inkscape:version="0.48.4 r9939"
   sodipodi:docname="big_h_same_font_hbase3_logo.png"
   inkscape:export-filename="big_h_bitmap.png"
   inkscape:export-xdpi="90"
   inkscape:export-ydpi="90"><metadata
   id="metadata3693"><rdf:RDF><cc:Work
       rdf:about=""><dc:format>image/svg+xml</dc:format><dc:type
         rdf:resource="http://purl.org/dc/dcmitype/StillImage" /><dc:title></dc:title></cc:Work></rdf:RDF></metadata><defs
   id="defs3691" /><sodipodi:namedview
   pagecolor="#000000"
   bordercolor="#666666"
   borderopacity="1"
   objecttolerance="10"
   gridtolerance="10"
   guidetolerance="10"
   inkscape:pageopacity="0"
   inkscape:pageshadow="2"
   inkscape:window-width="1440"
   inkscape:window-height="856"
   id="namedview3689"
   showgrid="false"
   inkscape:zoom="2.1814013"
   inkscape:cx="415.39305"
   inkscape:cy="415.72702"
   inkscape:window-x="1164"
   inkscape:window-y="22"
   inkscape:window-maximized="0"
   inkscape:current-layer="Layer_1" />






<text
   xml:space="preserve"
   style="font-size:40px;font-style:normal;font-variant:normal;font-weight:normal;font-stretch:normal;text-align:start;line-height:125%;letter-spacing:0px;word-spacing:0px;writing-mode:lr-tb;text-anchor:start;fill:#000000;fill-opacity:1;stroke:none;font-family:Bitsumishi;-inkscape-font-specification:Bitsumishi"
   x="311.18643"
   y="86.224579"
   id="text3082"
   sodipodi:linespacing="125%"><tspan
     sodipodi:role="line"
     id="tspan3084"
     x="311.18643"
     y="86.224579" /></text>
<text
   xml:space="preserve"
   style="font-size:40px;font-style:normal;font-variant:normal;font-weight:normal;font-stretch:normal;text-align:start;line-height:125%;letter-spacing:0px;word-spacing:0px;writing-mode:lr-tb;text-anchor:start;fill:#000000;fill-opacity:1;stroke:none;font-family:Bitsumishi;-inkscape-font-specification:Bitsumishi"
   x="283.95764"
   y="87.845337"
   id="text3086"
   sodipodi:linespacing="125%"><tspan
     sodipodi:role="line"
     id="tspan3088"
     x="283.95764"
     y="87.845337" /></text>
<g
   id="g3105"
   transform="translate(14.669469,-80.682082)"
   inkscape:export-filename="/Users/stack/Documents/big_h_base.png"
   inkscape:export-xdpi="90"
   inkscape:export-ydpi="90"><path
     sodipodi:nodetypes="ccccccccccccccccccccccccccccc"
     style="fill:#ba160c"
     inkscape:connector-curvature="0"
     id="path3677"
     d="m 589.08202,499.77746 -40.3716,0 0,-168.36691 40.3716,0 z m -40.20304,-168.35619 -0.1684,-104.30857 40.3716,0 -0.33048,104.26805 z m -0.1684,168.35619 -40.37568,0 0,-104.82988 -259.42272,0 0,104.82988 -79.42128,0 0,-272.66476 79.42128,0 0,104.29785 224.92224,0 34.50456,0 40.37568,0 0,168.36691 z m 0,-272.66476 -40.37568,0 -0.0171,104.30857 40.55802,-0.01 z"
     inkscape:export-filename="/Users/stack/Documents/polygon3687.png"
     inkscape:export-xdpi="90"
     inkscape:export-ydpi="90" /><path
     sodipodi:nodetypes="cscsccsssccsssccscsccccccccccccccccccccc"
     style="fill:#ba160c"
     inkscape:connector-curvature="0"
     id="path3679"
     d="m 263.96692,553.27262 c 6.812,4.218 10.219,10.652 10.219,19.303 0,6.272 -2,11.571 -6.002,15.897 -4.325,4.758 -10.165,7.137 -17.519,7.137 l -28.629,0 0,-19.465 28.629,0 c 2.812,0 4.218,-2.109 4.218,-6.327 0,-4.216 -1.406,-6.325 -4.218,-6.325 l -28.629,0 0,-19.303 27.17,0 c 2.811,0 4.217,-2.109 4.217,-6.327 0,-4.216 -1.406,-6.326 -4.217,-6.326 l -27.17,0 0,-19.464 27.17,0 c 7.353,0 13.192,2.379 17.519,7.137 3.892,4.325 5.839,9.625 5.839,15.896 0,7.787 -2.866,13.842 -8.597,18.167 z m -41.931,42.338 -52.312,0 0,-51.42 19.466,0 5.259,0 27.588,0 0,19.303 -32.847,0 0,12.652 32.847,0 0,19.465 z m 0,-64.073 -32.847,0 0.0405,12.76351 -19.466,0.081 -0.0405,-32.30954 52.312,0 0,19.465 z" /><path
     style="fill:#ba160c"
     inkscape:connector-curvature="0"
     id="path3683"
     d="m 384.35292,595.61062 h -19.465 v -26.602 h -31.094 -0.618 v -19.466 h 0.618 31.094 v -11.68 c 0,-4.216 -1.406,-6.324 -4.218,-6.324 h -27.494 v -19.465 h 27.494 c 7.03,0 12.733,2.541 17.114,7.623 4.379,5.083 6.569,11.139 6.569,18.167 v 57.747 z m -51.177,-26.602 h -19.547 -12.165 v 26.602 h -19.466 v -57.748 c 0,-7.028 2.19,-13.083 6.569,-18.167 4.379,-5.083 10.03,-7.623 16.952,-7.623 h 27.656 v 19.466 h -27.656 c -2.704,0 -4.055,2.108 -4.055,6.324 v 11.68 h 12.165 19.547 v 19.466 z" /><path
     style="fill:#ba160c"
     inkscape:connector-curvature="0"
     id="path3685"
     d="m 492.35692,569.81862 c 0,7.03 -2.109,13.031 -6.327,18.006 -4.541,5.19 -10.273,7.786 -17.193,7.786 h -72.02 v -19.465 h 72.02 c 2.704,0 4.055,-2.109 4.055,-6.327 0,-4.216 -1.352,-6.325 -4.055,-6.325 h -52.394 c -6.92,0 -12.652,-2.596 -17.193,-7.787 -4.327,-4.865 -6.49,-10.813 -6.49,-17.843 0,-7.028 2.218,-13.083 6.651,-18.167 4.434,-5.083 10.112,-7.623 17.032,-7.623 h 72.021 v 19.464 h -72.021 c -2.703,0 -4.055,2.109 -4.055,6.326 0,4.109 1.352,6.164 4.055,6.164 h 52.394 c 6.92,0 12.652,2.596 17.193,7.787 4.218,4.974 6.327,10.976 6.327,18.004 z" /><polygon
     style="fill:#ba160c"
     transform="translate(-71.972085,223.93862)"
     id="polygon3687"
     points="656.952,339.555 591.906,339.555 591.906,352.207 661.331,352.207 661.331,371.672 572.44,371.672 572.44,288.135 661.494,288.135 661.494,307.599 591.906,307.599 591.906,320.089 656.952,320.089 "
     inkscape:export-xdpi="90"
     inkscape:export-ydpi="90" /><g
     id="g3349"><g
       id="g3344"><text
         transform="scale(0.93350678,1.0712295)"
         sodipodi:linespacing="125%"
         id="text3076"
         y="203.03328"
         x="181.98402"
         style="font-size:84.015625px;font-style:italic;font-variant:normal;font-weight:bold;font-stretch:normal;text-align:start;line-height:125%;letter-spacing:0px;word-spacing:0px;writing-mode:lr-tb;text-anchor:start;fill:#4d4d4d;fill-opacity:1;stroke:none;font-family:Bitsumishi;-inkscape-font-specification:Bitsumishi Bold Italic"
         xml:space="preserve"
         inkscape:export-xdpi="90"
         inkscape:export-ydpi="90"
         inkscape:export-filename="/Users/stack/Documents/polygon3687.png"><tspan
           style="font-size:84.015625px;font-style:normal;font-variant:normal;font-weight:normal;font-stretch:normal;text-align:start;line-height:125%;letter-spacing:25.64349174px;writing-mode:lr-tb;text-anchor:start;fill:#4d4d4d;font-family:Bitsumishi;-inkscape-font-specification:Bitsumishi"
           y="203.03328"
           x="181.98402"
           id="tspan3080"
           sodipodi:role="line">APACHE</tspan></text>
<rect
         y="191.93103"
         x="178.85117"
         height="10.797735"
         width="7.7796612"
         id="rect3090"
         style="fill:#4d4d4d" /></g><rect
       style="fill:#4d4d4d"
       id="rect3103"
       width="8.1443329"
       height="10.787481"
       x="334.64697"
       y="191.93881" /></g></g></svg>