<?xml version="1.0" encoding="UTF-8" standalone="no"?>
<!-- Generator: Adobe Illustrator 15.1.0, SVG Export Plug-In . SVG Version: 6.00 Build 0)  -->

<svg
   xmlns:dc="http://purl.org/dc/elements/1.1/"
   xmlns:cc="http://creativecommons.org/ns#"
   xmlns:rdf="http://www.w3.org/1999/02/22-rdf-syntax-ns#"
   xmlns:svg="http://www.w3.org/2000/svg"
   xmlns="http://www.w3.org/2000/svg"
   xmlns:sodipodi="http://sodipodi.sourceforge.net/DTD/sodipodi-0.dtd"
   xmlns:inkscape="http://www.inkscape.org/namespaces/inkscape"
   version="1.1"
   id="Layer_1"
   x="0px"
   y="0px"
   width="792px"
   height="612px"
   viewBox="0 0 792 612"
   enable-background="new 0 0 792 612"
   xml:space="preserve"
   inkscape:version="0.48.4 r9939"
   sodipodi:docname="hbase_banner_logo.png"
   inkscape:export-filename="hbase_logo_filledin.png"
   inkscape:export-xdpi="90"
   inkscape:export-ydpi="90"><metadata
   id="metadata3285"><rdf:RDF><cc:Work
       rdf:about=""><dc:format>image/svg+xml</dc:format><dc:type
         rdf:resource="http://purl.org/dc/dcmitype/StillImage" /><dc:title></dc:title></cc:Work></rdf:RDF></metadata><defs
   id="defs3283" /><sodipodi:namedview
   pagecolor="#ffffff"
   bordercolor="#666666"
   borderopacity="1"
   objecttolerance="10"
   gridtolerance="10"
   guidetolerance="10"
   inkscape:pageopacity="0"
   inkscape:pageshadow="2"
   inkscape:window-width="1131"
   inkscape:window-height="715"
   id="namedview3281"
   showgrid="false"
   inkscape:zoom="4.3628026"
   inkscape:cx="328.98554"
   inkscape:cy="299.51695"
   inkscape:window-x="752"
   inkscape:window-y="456"
   inkscape:window-maximized="0"
   inkscape:current-layer="Layer_1" />
<path
   d="m 233.586,371.672 -9.895,0 0,-51.583 9.895,0 0,51.583 z m -9.77344,-51.59213 -0.12156,-31.94487 9.895,0 -0.0405,31.98539 z m -0.12156,51.59213 -9.896,0 0,-32.117 -63.584,0 0,32.117 -19.466,0 0,-83.537 19.466,0 0,31.954 55.128,0 8.457,0 9.896,0 0,51.583 z m 0,-83.537 -9.896,0 0,31.98539 10.01756,-0.0405 z"
   id="path3269"
   inkscape:connector-curvature="0"
   style="fill:#ba160c"
   sodipodi:nodetypes="cccccccccccccccccccccccccccccc" />
<path
   d="m 335.939,329.334 c 6.812,4.218 10.219,10.652 10.219,19.303 0,6.272 -2,11.571 -6.002,15.897 -4.325,4.758 -10.165,7.137 -17.519,7.137 l -28.629,0 0,-19.465 28.629,0 c 2.812,0 4.218,-2.109 4.218,-6.327 0,-4.216 -1.406,-6.325 -4.218,-6.325 l -28.629,0 0,-19.303 27.17,0 c 2.811,0 4.217,-2.109 4.217,-6.327 0,-4.216 -1.406,-6.326 -4.217,-6.326 l -27.17,0 0,-19.464 27.17,0 c 7.353,0 13.192,2.379 17.519,7.137 3.892,4.325 5.839,9.625 5.839,15.896 0,7.787 -2.866,13.842 -8.597,18.167 z m -41.931,42.338 -52.312,0 0,-51.42 19.466,0 5.259,0 27.588,0 0,19.303 -32.847,0 0,12.652 32.847,0 0,19.465 z m 0,-64.073 -32.847,0 0.0405,13.24974 -19.466,-0.48623 -0.0405,-32.22851 52.312,0 0,19.465 z"
   id="path3271"
   inkscape:connector-curvature="0"
   style="fill:#ba160c"
   sodipodi:nodetypes="cscsccsssccsssccscsccccccccccccccccccccc" />
<path
   d="M355.123,266.419v-8.92h14.532v-5.353c0-1.932-0.644-2.899-1.933-2.899h-12.6v-8.919h12.6  c3.223,0,5.836,1.164,7.842,3.494c2.007,2.33,3.011,5.104,3.011,8.325v26.463h-8.921v-12.19H355.123L355.123,266.419z   M473.726,278.61h-29.587c-3.469,0-6.417-1.152-8.845-3.458c-2.429-2.304-3.642-5.191-3.642-8.659v-14.049  c0-3.47,1.213-6.356,3.642-8.662c2.428-2.304,5.376-3.455,8.845-3.455h29.587v8.919h-29.587c-2.378,0-3.567,1.066-3.567,3.197  v14.049c0,2.131,1.189,3.196,3.567,3.196h29.587V278.61L473.726,278.61z M567.609,278.61h-8.996v-14.718h-22.895v14.718h-8.92  v-38.282h8.92v14.644h22.895v-14.644h8.996V278.61L567.609,278.61z M661.494,249.247h-31.889v5.725h29.807v8.92h-29.807v5.797  h31.814v8.92h-40.735v-38.282h40.809V249.247z M355.123,240.328v8.919h-12.674c-1.239,0-1.858,0.967-1.858,2.899v5.353h5.575h2.435  h6.522v8.92h-6.522h-2.435h-5.575v12.19h-8.92v-26.463c0-3.221,1.004-5.996,3.011-8.325c2.006-2.33,4.596-3.494,7.768-3.494H355.123  L355.123,240.328z M254.661,266.122v-8.92h13.083c1.288,0,1.933-1.313,1.933-3.939c0-2.676-0.645-4.015-1.933-4.015h-13.083v-8.919  h13.083c3.32,0,5.995,1.363,8.028,4.088c1.883,2.478,2.825,5.425,2.825,8.846c0,3.419-0.942,6.342-2.825,8.771  c-2.033,2.725-4.708,4.088-8.028,4.088H254.661z M177.649,278.61h-8.92v-12.19h-14.532v-8.92h14.532v-5.353  c0-1.932-0.644-2.899-1.932-2.899h-12.6v-8.919h12.6c3.222,0,5.835,1.164,7.842,3.494c2.007,2.33,3.01,5.104,3.01,8.325V278.61  L177.649,278.61z M254.661,240.328v8.919h-15.016v7.954h15.016v8.92h-15.016v12.488h-8.92v-38.282H254.661z M154.198,266.419h-7.604  h-1.354h-5.575v12.19h-8.92v-26.463c0-3.221,1.004-5.996,3.01-8.325c2.007-2.33,4.597-3.494,7.768-3.494h12.674v8.919h-12.674  c-1.239,0-1.858,0.967-1.858,2.899v5.353h5.575h1.354h7.604V266.419z"
   id="path3273"
   style="fill:#666666"
   fill="#878888" />
<path
   fill="#BA160C"
   d="M456.325,371.672H436.86V345.07h-31.094h-0.618v-19.466h0.618h31.094v-11.68  c0-4.216-1.406-6.324-4.218-6.324h-27.494v-19.465h27.494c7.03,0,12.733,2.541,17.114,7.623c4.379,5.083,6.569,11.139,6.569,18.167  V371.672z M405.148,345.07h-19.547h-12.165v26.602h-19.466v-57.748c0-7.028,2.19-13.083,6.569-18.167  c4.379-5.083,10.03-7.623,16.952-7.623h27.656V307.6h-27.656c-2.704,0-4.055,2.108-4.055,6.324v11.68h12.165h19.547V345.07z"
   id="path3275" />
<path
   fill="#BA160C"
   d="M564.329,345.88c0,7.03-2.109,13.031-6.327,18.006c-4.541,5.19-10.273,7.786-17.193,7.786h-72.02v-19.465  h72.02c2.704,0,4.055-2.109,4.055-6.327c0-4.216-1.352-6.325-4.055-6.325h-52.394c-6.92,0-12.652-2.596-17.193-7.787  c-4.327-4.865-6.49-10.813-6.49-17.843c0-7.028,2.218-13.083,6.651-18.167c4.434-5.083,10.112-7.623,17.032-7.623h72.021v19.464  h-72.021c-2.703,0-4.055,2.109-4.055,6.326c0,4.109,1.352,6.164,4.055,6.164h52.394c6.92,0,12.652,2.596,17.193,7.787  C562.22,332.85,564.329,338.852,564.329,345.88z"
   id="path3277" />
<polygon
   fill="#BA160C"
   points="661.494,307.599 591.906,307.599 591.906,320.089 656.952,320.089 656.952,339.555 591.906,339.555   591.906,352.207 661.331,352.207 661.331,371.672 572.44,371.672 572.44,288.135 661.494,288.135 "
   id="polygon3279" />
</svg>